<svg xmlns="http://www.w3.org/2000/svg" viewBox="0 0 512 512" width="512" height="512" fill="none" stroke="#000" stroke-width="18" stroke-linecap="round" stroke-linejoin="round">
  <path d="M72 58v170c0 28 22 50 50 50h70"/>
  <path d="M192 248h56"/>
  <path d="M314 248h114c30 0 54 24 54 54v150"/>
  <path d="M344 82v220"/>
  <path d="M72 336h248c13 0 24-11 24-24v-64"/>
  <path d="M344 248v78c0 36-30 66-66 66H216"/>
  <path d="M218 60v96c0 24 20 44 44 44h78"/>
  <path d="M246 60v66c0 14 12 26 26 26h68"/>
  <path d="M276 60v38c0 8 7 15 15 15h49"/>
  <circle cx="256" cy="248" r="42"/>
  <circle cx="256" cy="248" r="9" fill="#000"/>
  <path d="M256 206v42"/>
  <path d="M220 269l36-21 36 21"/>
  <circle cx="436" cy="118" r="42"/>
  <circle cx="436" cy="118" r="20"/>
  <path d="M436 118l10-8"/>
  <rect x="128" y="224" width="58" height="48" rx="10"/>
  <path d="M145 224v48M169 224v48"/>
  <rect x="52" y="314" width="58" height="48" rx="10"/>
  <path d="M69 314v48M93 314v48"/>
  <rect x="330" y="224" width="58" height="48" rx="10"/>
  <path d="M347 224v48M371 224v48"/>
  <path d="M190 392h88l14 16h-116z" fill="#fff"/>
  <path d="M234 408v22"/>
  <path d="M202 430h64"/>
</svg>