<svg xmlns="http://www.w3.org/2000/svg" width="512" height="512" viewBox="0 0 512 512" fill="none">
  <path d="M 156 436 L 153 439 L 153 446 L 154 448 L 155 448 L 157 450 L 163 450 L 165 449 L 168 443 L 167 442 L 167 439 L 164 436 L 162 436 L 161 435 Z M 305 370 L 305 406 L 341 406 L 341 370 Z M 157 301 L 155 302 L 152 306 L 152 319 L 153 320 L 153 349 L 154 350 L 154 378 L 155 379 L 155 396 L 157 399 L 163 399 L 165 396 L 165 380 L 166 379 L 166 351 L 167 350 L 167 322 L 168 321 L 168 307 L 167 306 L 167 304 L 165 302 L 163 301 Z M 399 274 L 399 406 L 434 406 L 435 405 L 435 275 L 434 274 Z M 305 274 L 305 310 L 341 310 L 341 274 Z M 212 274 L 211 275 L 211 307 L 213 310 L 247 310 L 247 274 Z M 155 253 L 153 255 L 151 260 L 146 267 L 144 272 L 142 274 L 136 286 L 131 293 L 129 298 L 127 300 L 121 312 L 116 319 L 110 331 L 105 338 L 103 343 L 101 345 L 95 357 L 90 364 L 88 369 L 86 371 L 80 383 L 75 390 L 69 402 L 64 409 L 62 414 L 60 416 L 54 428 L 49 435 L 47 440 L 45 442 L 39 454 L 34 461 L 32 465 L 32 468 L 31 469 L 32 470 L 33 474 L 36 476 L 284 476 L 288 472 L 288 470 L 289 469 L 286 461 L 284 459 L 282 454 L 280 452 L 274 440 L 269 433 L 263 421 L 258 414 L 256 409 L 251 402 L 249 397 L 247 395 L 241 383 L 236 376 L 234 371 L 232 369 L 226 357 L 221 350 L 219 345 L 217 343 L 211 331 L 206 324 L 204 319 L 202 317 L 200 312 L 198 310 L 192 298 L 187 291 L 185 286 L 183 284 L 181 279 L 176 272 L 174 267 L 172 265 L 167 255 L 163 252 L 157 252 Z M 152 424 L 154 424 L 155 423 L 165 423 L 166 424 L 168 424 L 177 432 L 180 438 L 180 447 L 179 448 L 179 450 L 177 454 L 171 460 L 167 462 L 164 462 L 163 463 L 157 463 L 156 462 L 153 462 L 149 460 L 143 454 L 141 450 L 141 448 L 140 447 L 140 438 L 141 437 L 141 435 L 142 433 L 149 426 L 150 426 Z M 157 288 L 164 288 L 167 290 L 171 291 L 179 300 L 179 302 L 180 303 L 180 307 L 181 308 L 181 310 L 180 311 L 180 340 L 179 341 L 179 369 L 178 370 L 178 395 L 177 396 L 177 399 L 176 400 L 175 404 L 170 409 L 164 412 L 156 412 L 155 411 L 151 410 L 145 404 L 143 400 L 143 396 L 142 395 L 142 368 L 141 367 L 141 339 L 140 338 L 140 310 L 139 309 L 139 306 L 140 305 L 140 302 L 142 298 L 148 292 L 149 292 L 151 290 L 153 290 Z M 399 179 L 399 215 L 434 215 L 435 214 L 435 180 L 434 179 Z M 305 179 L 305 215 L 341 215 L 341 179 Z M 211 179 L 211 215 L 247 215 L 247 179 Z M 193 71 L 193 131 L 195 133 L 451 133 L 453 130 L 453 72 L 451 69 L 195 69 Z M 170 36 L 167 39 L 167 41 L 166 42 L 166 240 L 171 242 L 177 248 L 180 254 L 182 256 L 183 259 L 185 261 L 187 266 L 189 268 L 191 273 L 196 280 L 198 285 L 199 285 L 199 266 L 200 264 L 203 262 L 256 262 L 260 266 L 260 318 L 259 320 L 255 323 L 221 323 L 221 325 L 223 327 L 225 332 L 230 339 L 232 344 L 234 346 L 236 351 L 241 358 L 243 363 L 245 365 L 247 370 L 252 377 L 255 384 L 260 391 L 262 396 L 264 398 L 266 403 L 271 410 L 273 415 L 275 417 L 277 422 L 279 424 L 281 429 L 283 431 L 287 439 L 472 439 L 473 438 L 475 438 L 479 434 L 479 431 L 480 430 L 480 44 L 479 43 L 479 40 L 478 38 L 474 35 L 172 35 Z M 295 358 L 297 357 L 349 357 L 353 360 L 353 362 L 354 363 L 354 412 L 353 413 L 353 415 L 350 418 L 296 418 L 293 415 L 292 413 L 292 362 Z M 390 262 L 443 262 L 445 263 L 447 266 L 447 414 L 446 416 L 443 418 L 390 418 L 386 414 L 386 266 L 387 264 Z M 296 262 L 350 262 L 353 265 L 353 267 L 354 268 L 354 317 L 353 318 L 353 320 L 351 322 L 349 323 L 297 323 L 293 320 L 292 318 L 292 267 Z M 389 167 L 391 166 L 442 166 L 447 170 L 447 223 L 444 227 L 442 228 L 391 228 L 387 225 L 386 223 L 386 170 Z M 295 167 L 297 167 L 298 166 L 348 166 L 353 170 L 354 172 L 354 222 L 350 227 L 348 228 L 298 228 L 293 224 L 292 222 L 292 171 Z M 199 170 L 204 166 L 255 166 L 257 167 L 260 171 L 260 223 L 259 225 L 254 228 L 204 228 L 202 227 L 199 224 Z M 181 67 L 183 63 L 187 59 L 193 56 L 453 56 L 460 60 L 464 65 L 464 67 L 465 68 L 465 134 L 464 135 L 464 137 L 460 142 L 452 146 L 194 146 L 193 145 L 189 144 L 184 140 L 184 139 L 181 135 L 181 130 L 180 129 L 180 72 L 181 71 Z" fill="#000000" fill-rule="evenodd"/>
</svg>
